<svg width="232" height="31" viewBox="0 0 232 31" fill="none" xmlns="http://www.w3.org/2000/svg">
<rect x="0.5" y="0.5" width="231" height="30" rx="9.5" stroke="#3C3C3C" stroke-opacity="0.58"/>
<path d="M57.2866 20.078C56.7319 20.078 56.2466 19.9697 55.8306 19.753C55.4146 19.5363 55.0636 19.246 54.7776 18.882C54.5002 18.518 54.2922 18.1063 54.1536 17.647C54.0149 17.1877 53.9456 16.7197 53.9456 16.243C53.9456 15.723 54.0236 15.203 54.1796 14.683C54.3356 14.1543 54.5609 13.6517 54.8556 13.175C55.1589 12.6983 55.5186 12.278 55.9346 11.914C56.3592 11.5413 56.8359 11.251 57.3646 11.043C57.9019 10.8263 58.4826 10.718 59.1066 10.718C59.9559 10.718 60.6232 10.913 61.1086 11.303C61.5939 11.6843 61.9146 12.161 62.0706 12.733L61.0956 13.292C60.9829 12.8847 60.8139 12.5727 60.5886 12.356C60.3719 12.1307 60.1206 11.979 59.8346 11.901C59.5572 11.8143 59.2626 11.771 58.9506 11.771C58.3006 11.771 57.7372 11.9053 57.2606 12.174C56.7839 12.434 56.3852 12.7807 56.0646 13.214C55.7526 13.6387 55.5186 14.1067 55.3626 14.618C55.2066 15.1207 55.1286 15.6147 55.1286 16.1C55.1286 16.6287 55.2196 17.1183 55.4016 17.569C55.5836 18.011 55.8522 18.3663 56.2076 18.635C56.5629 18.895 56.9919 19.025 57.4946 19.025C57.8066 19.025 58.1272 18.9687 58.4566 18.856C58.7946 18.7347 59.1196 18.557 59.4316 18.323C59.7436 18.0803 60.0209 17.7727 60.2636 17.4L61.1216 17.933C60.8182 18.4183 60.4499 18.8213 60.0166 19.142C59.5832 19.4627 59.1282 19.701 58.6516 19.857C58.1836 20.0043 57.7286 20.078 57.2866 20.078ZM65.2207 20.13C64.6141 20.13 64.1114 20 63.7127 19.74C63.3141 19.48 63.0151 19.1333 62.8157 18.7C62.6251 18.2667 62.5297 17.79 62.5297 17.27C62.5297 16.698 62.6337 16.1607 62.8417 15.658C63.0497 15.1553 63.3357 14.7133 63.6997 14.332C64.0724 13.942 64.5014 13.6387 64.9867 13.422C65.4721 13.2053 65.9877 13.097 66.5337 13.097C67.1404 13.097 67.6431 13.227 68.0417 13.487C68.4491 13.747 68.7524 14.0937 68.9517 14.527C69.1511 14.9603 69.2507 15.4413 69.2507 15.97C69.2507 16.5333 69.1467 17.0663 68.9387 17.569C68.7307 18.0717 68.4404 18.518 68.0677 18.908C67.6951 19.2893 67.2661 19.5883 66.7807 19.805C66.2954 20.0217 65.7754 20.13 65.2207 20.13ZM65.4157 19.142C65.7537 19.142 66.0787 19.0683 66.3907 18.921C66.7114 18.7737 66.9931 18.5657 67.2357 18.297C67.4871 18.0197 67.6864 17.699 67.8337 17.335C67.9811 16.971 68.0547 16.5723 68.0547 16.139C68.0547 15.7403 67.9897 15.3893 67.8597 15.086C67.7297 14.774 67.5391 14.5313 67.2877 14.358C67.0364 14.176 66.7244 14.085 66.3517 14.085C66.0137 14.085 65.6887 14.163 65.3767 14.319C65.0647 14.4663 64.7831 14.6787 64.5317 14.956C64.2804 15.2247 64.0811 15.5453 63.9337 15.918C63.7864 16.282 63.7127 16.6807 63.7127 17.114C63.7127 17.504 63.7777 17.855 63.9077 18.167C64.0377 18.4703 64.2284 18.7087 64.4797 18.882C64.7397 19.0553 65.0517 19.142 65.4157 19.142ZM71.6574 13.214H72.6974L72.3854 14.67C72.6194 14.3493 72.8967 14.072 73.2174 13.838C73.5467 13.604 73.8977 13.422 74.2704 13.292C74.643 13.162 75.0157 13.097 75.3884 13.097C75.7524 13.097 76.0427 13.1663 76.2594 13.305C76.476 13.435 76.632 13.6213 76.7274 13.864C76.8227 14.098 76.8704 14.3753 76.8704 14.696C76.8704 14.8867 76.853 15.086 76.8184 15.294C76.7924 15.502 76.7577 15.7187 76.7144 15.944L75.8564 20H74.7124L75.5184 16.204C75.5617 16.0133 75.592 15.84 75.6094 15.684C75.6267 15.5193 75.6354 15.3677 75.6354 15.229C75.6354 14.8477 75.5574 14.5703 75.4014 14.397C75.2454 14.215 75.0157 14.124 74.7124 14.124C74.4264 14.124 74.123 14.202 73.8024 14.358C73.4817 14.514 73.1827 14.7263 72.9054 14.995C72.628 15.255 72.4027 15.5583 72.2294 15.905L71.3584 20H70.2144L71.6574 13.214ZM78.4378 19.051C78.4378 18.9903 78.4421 18.9297 78.4508 18.869C78.4594 18.7997 78.4681 18.7347 78.4768 18.674L79.4518 14.111H78.5678L78.7628 13.214H79.6338L80.1148 10.952H81.2588L80.7778 13.214H82.2208L82.0258 14.111H80.5958L79.6988 18.323C79.6901 18.3577 79.6814 18.3923 79.6728 18.427C79.6728 18.453 79.6728 18.4833 79.6728 18.518C79.6728 18.7 79.7291 18.8343 79.8418 18.921C79.9544 18.999 80.0931 19.038 80.2578 19.038C80.4051 19.038 80.5438 19.0207 80.6738 18.986C80.8124 18.9427 80.9338 18.8993 81.0378 18.856C81.1418 18.8127 81.2198 18.778 81.2718 18.752L81.3368 19.662C81.2328 19.7313 81.0941 19.8007 80.9208 19.87C80.7474 19.9393 80.5524 19.9913 80.3358 20.026C80.1191 20.0693 79.8938 20.091 79.6598 20.091C79.3131 20.091 79.0228 20.0087 78.7888 19.844C78.5548 19.6707 78.4378 19.4063 78.4378 19.051ZM84.1043 13.214H85.2483L83.8053 20H82.6613L84.1043 13.214ZM84.6763 10.51H85.8203L85.5213 11.94H84.3773L84.6763 10.51ZM87.427 13.214H88.467L88.155 14.67C88.389 14.3493 88.6663 14.072 88.987 13.838C89.3163 13.604 89.6673 13.422 90.04 13.292C90.4126 13.162 90.7853 13.097 91.158 13.097C91.522 13.097 91.8123 13.1663 92.029 13.305C92.2456 13.435 92.4016 13.6213 92.497 13.864C92.5923 14.098 92.64 14.3753 92.64 14.696C92.64 14.8867 92.6226 15.086 92.588 15.294C92.562 15.502 92.5273 15.7187 92.484 15.944L91.626 20H90.482L91.288 16.204C91.3313 16.0133 91.3616 15.84 91.379 15.684C91.3963 15.5193 91.405 15.3677 91.405 15.229C91.405 14.8477 91.327 14.5703 91.171 14.397C91.015 14.215 90.7853 14.124 90.482 14.124C90.196 14.124 89.8926 14.202 89.572 14.358C89.2513 14.514 88.9523 14.7263 88.675 14.995C88.3976 15.255 88.1723 15.5583 87.999 15.905L87.128 20H85.984L87.427 13.214ZM95.6999 20.13C94.6426 20.13 94.1139 19.558 94.1139 18.414C94.1139 18.2493 94.1269 18.076 94.1529 17.894C94.1789 17.7033 94.2136 17.4997 94.2569 17.283L95.1279 13.214H96.2589L95.4399 17.062C95.3619 17.4087 95.3229 17.7077 95.3229 17.959C95.3229 18.7477 95.6609 19.142 96.3369 19.142C96.6316 19.142 96.9263 19.077 97.2209 18.947C97.5156 18.8083 97.7973 18.6133 98.0659 18.362C98.3433 18.1107 98.5816 17.8117 98.7809 17.465L99.6779 13.214H100.822L99.6779 18.596C99.6693 18.6307 99.6606 18.661 99.6519 18.687C99.6519 18.713 99.6519 18.739 99.6519 18.765C99.6519 18.921 99.7473 19.0033 99.9379 19.012L99.7299 20C99.6346 20.0087 99.5479 20.0173 99.4699 20.026C99.4006 20.0433 99.3356 20.052 99.2749 20.052C99.0409 20.052 98.8633 20 98.7419 19.896C98.6206 19.792 98.5599 19.6533 98.5599 19.48C98.5599 19.428 98.5643 19.3673 98.5729 19.298C98.5816 19.22 98.5946 19.1203 98.6119 18.999C98.6379 18.8777 98.6683 18.726 98.7029 18.544C98.3129 19.0467 97.8536 19.4367 97.3249 19.714C96.7963 19.9913 96.2546 20.13 95.6999 20.13ZM104.282 20.13C103.779 20.13 103.346 20.0043 102.982 19.753C102.618 19.493 102.341 19.1507 102.15 18.726C101.959 18.2927 101.864 17.8203 101.864 17.309C101.864 16.763 101.964 16.2387 102.163 15.736C102.371 15.2333 102.648 14.787 102.995 14.397C103.35 13.9983 103.753 13.682 104.204 13.448C104.655 13.214 105.127 13.097 105.621 13.097C106.141 13.097 106.574 13.24 106.921 13.526C107.268 13.812 107.51 14.1587 107.649 14.566L107.948 13.214H109.092L107.948 18.596C107.939 18.6307 107.931 18.661 107.922 18.687C107.922 18.713 107.922 18.739 107.922 18.765C107.922 18.921 108.017 19.0033 108.208 19.012L108 20C107.905 20.0087 107.818 20.0173 107.74 20.026C107.671 20.0433 107.606 20.052 107.545 20.052C107.302 20.052 107.116 19.9957 106.986 19.883C106.865 19.7703 106.804 19.6317 106.804 19.467C106.804 19.415 106.808 19.3543 106.817 19.285C106.826 19.2157 106.839 19.1333 106.856 19.038C106.873 18.9427 106.895 18.8387 106.921 18.726C106.583 19.1593 106.171 19.5017 105.686 19.753C105.209 20.0043 104.741 20.13 104.282 20.13ZM104.776 19.142C104.967 19.142 105.17 19.103 105.387 19.025C105.612 18.947 105.829 18.8387 106.037 18.7C106.254 18.5613 106.449 18.401 106.622 18.219C106.795 18.0283 106.925 17.829 107.012 17.621L107.415 15.671C107.38 15.3763 107.281 15.112 107.116 14.878C106.951 14.6353 106.748 14.4447 106.505 14.306C106.271 14.1587 106.02 14.085 105.751 14.085C105.387 14.085 105.045 14.176 104.724 14.358C104.403 14.5313 104.117 14.7653 103.866 15.06C103.623 15.3547 103.428 15.684 103.281 16.048C103.142 16.4033 103.073 16.763 103.073 17.127C103.073 17.4997 103.142 17.8377 103.281 18.141C103.42 18.4443 103.615 18.687 103.866 18.869C104.126 19.051 104.429 19.142 104.776 19.142ZM111.36 13.214H112.426L112.088 14.787C112.417 14.319 112.79 13.9377 113.206 13.643C113.63 13.3483 114.051 13.201 114.467 13.201C114.545 13.201 114.61 13.2053 114.662 13.214C114.722 13.214 114.77 13.2183 114.805 13.227L114.597 14.215C114.059 14.2237 113.552 14.371 113.076 14.657C112.599 14.9343 112.222 15.32 111.945 15.814L111.061 20H109.917L111.36 13.214ZM121.136 20.13C120.564 20.13 120.079 20 119.68 19.74C119.29 19.48 118.991 19.1333 118.783 18.7C118.575 18.2667 118.471 17.7857 118.471 17.257C118.471 16.711 118.575 16.191 118.783 15.697C118.991 15.1943 119.277 14.748 119.641 14.358C120.014 13.968 120.447 13.6603 120.941 13.435C121.444 13.2097 121.986 13.097 122.566 13.097C123.234 13.097 123.767 13.2487 124.165 13.552C124.573 13.8467 124.841 14.2453 124.971 14.748L123.788 15.099C123.684 14.7697 123.511 14.5183 123.268 14.345C123.026 14.1717 122.727 14.085 122.371 14.085C122.025 14.085 121.687 14.163 121.357 14.319C121.037 14.475 120.746 14.696 120.486 14.982C120.235 15.2593 120.031 15.58 119.875 15.944C119.728 16.308 119.654 16.698 119.654 17.114C119.654 17.504 119.724 17.8507 119.862 18.154C120.001 18.4573 120.192 18.7 120.434 18.882C120.686 19.0553 120.972 19.142 121.292 19.142C121.544 19.142 121.795 19.0943 122.046 18.999C122.298 18.9037 122.523 18.778 122.722 18.622C122.93 18.4573 123.086 18.2797 123.19 18.089L124.243 18.427C124.044 18.7563 123.78 19.051 123.45 19.311C123.13 19.5623 122.77 19.7617 122.371 19.909C121.973 20.0563 121.561 20.13 121.136 20.13ZM128.459 20.13C127.852 20.13 127.349 20 126.951 19.74C126.552 19.48 126.253 19.1333 126.054 18.7C125.863 18.2667 125.768 17.79 125.768 17.27C125.768 16.698 125.872 16.1607 126.08 15.658C126.288 15.1553 126.574 14.7133 126.938 14.332C127.31 13.942 127.739 13.6387 128.225 13.422C128.71 13.2053 129.226 13.097 129.772 13.097C130.378 13.097 130.881 13.227 131.28 13.487C131.687 13.747 131.99 14.0937 132.19 14.527C132.389 14.9603 132.489 15.4413 132.489 15.97C132.489 16.5333 132.385 17.0663 132.177 17.569C131.969 18.0717 131.678 18.518 131.306 18.908C130.933 19.2893 130.504 19.5883 130.019 19.805C129.533 20.0217 129.013 20.13 128.459 20.13ZM128.654 19.142C128.992 19.142 129.317 19.0683 129.629 18.921C129.949 18.7737 130.231 18.5657 130.474 18.297C130.725 18.0197 130.924 17.699 131.072 17.335C131.219 16.971 131.293 16.5723 131.293 16.139C131.293 15.7403 131.228 15.3893 131.098 15.086C130.968 14.774 130.777 14.5313 130.526 14.358C130.274 14.176 129.962 14.085 129.59 14.085C129.252 14.085 128.927 14.163 128.615 14.319C128.303 14.4663 128.021 14.6787 127.77 14.956C127.518 15.2247 127.319 15.5453 127.172 15.918C127.024 16.282 126.951 16.6807 126.951 17.114C126.951 17.504 127.016 17.855 127.146 18.167C127.276 18.4703 127.466 18.7087 127.718 18.882C127.978 19.0553 128.29 19.142 128.654 19.142ZM134.895 13.214H135.935L135.623 14.67C135.97 14.1847 136.386 13.8033 136.871 13.526C137.357 13.24 137.851 13.097 138.353 13.097C138.691 13.097 138.973 13.162 139.198 13.292C139.432 13.422 139.61 13.6083 139.731 13.851C139.853 14.0937 139.918 14.3927 139.926 14.748C140.195 14.384 140.477 14.0807 140.771 13.838C141.066 13.5953 141.378 13.4133 141.707 13.292C142.037 13.162 142.37 13.097 142.708 13.097C143.081 13.097 143.376 13.1663 143.592 13.305C143.809 13.4437 143.965 13.6387 144.06 13.89C144.164 14.1327 144.216 14.4187 144.216 14.748C144.216 14.93 144.203 15.1207 144.177 15.32C144.151 15.5193 144.117 15.7273 144.073 15.944L143.202 20H142.058L142.864 16.204C142.942 15.84 142.981 15.5237 142.981 15.255C142.981 14.8737 142.899 14.592 142.734 14.41C142.578 14.2193 142.349 14.124 142.045 14.124C141.759 14.124 141.473 14.202 141.187 14.358C140.901 14.5053 140.633 14.7133 140.381 14.982C140.139 15.2507 139.931 15.5627 139.757 15.918L138.899 20H137.755L138.561 16.204C138.605 16.0133 138.635 15.84 138.652 15.684C138.67 15.528 138.678 15.3807 138.678 15.242C138.678 14.8607 138.6 14.579 138.444 14.397C138.288 14.215 138.059 14.124 137.755 14.124C137.331 14.124 136.906 14.2887 136.481 14.618C136.065 14.9387 135.727 15.3677 135.467 15.905L134.596 20H133.452L134.895 13.214ZM151.833 20.13C151.226 20.13 150.723 20 150.325 19.74C149.926 19.48 149.627 19.1333 149.428 18.7C149.237 18.2667 149.142 17.79 149.142 17.27C149.142 16.698 149.246 16.1607 149.454 15.658C149.662 15.1553 149.948 14.7133 150.312 14.332C150.684 13.942 151.113 13.6387 151.599 13.422C152.084 13.2053 152.6 13.097 153.146 13.097C153.752 13.097 154.255 13.227 154.654 13.487C155.061 13.747 155.364 14.0937 155.564 14.527C155.763 14.9603 155.863 15.4413 155.863 15.97C155.863 16.5333 155.759 17.0663 155.551 17.569C155.343 18.0717 155.052 18.518 154.68 18.908C154.307 19.2893 153.878 19.5883 153.393 19.805C152.907 20.0217 152.387 20.13 151.833 20.13ZM152.028 19.142C152.366 19.142 152.691 19.0683 153.003 18.921C153.323 18.7737 153.605 18.5657 153.848 18.297C154.099 18.0197 154.298 17.699 154.446 17.335C154.593 16.971 154.667 16.5723 154.667 16.139C154.667 15.7403 154.602 15.3893 154.472 15.086C154.342 14.774 154.151 14.5313 153.9 14.358C153.648 14.176 153.336 14.085 152.964 14.085C152.626 14.085 152.301 14.163 151.989 14.319C151.677 14.4663 151.395 14.6787 151.144 14.956C150.892 15.2247 150.693 15.5453 150.546 15.918C150.398 16.282 150.325 16.6807 150.325 17.114C150.325 17.504 150.39 17.855 150.52 18.167C150.65 18.4703 150.84 18.7087 151.092 18.882C151.352 19.0553 151.664 19.142 152.028 19.142ZM164.159 20.065C163.665 20.065 163.219 19.961 162.82 19.753C162.422 19.5363 162.084 19.2503 161.806 18.895C161.529 18.531 161.317 18.1193 161.169 17.66C161.022 17.192 160.948 16.7067 160.948 16.204C160.948 15.502 161.091 14.826 161.377 14.176C161.663 13.5173 162.049 12.928 162.534 12.408C163.028 11.8793 163.583 11.4633 164.198 11.16C164.822 10.8567 165.472 10.705 166.148 10.705C166.998 10.705 167.656 10.8913 168.124 11.264C168.601 11.6367 168.922 12.122 169.086 12.72L168.059 13.344C167.921 12.8067 167.661 12.408 167.279 12.148C166.898 11.888 166.439 11.758 165.901 11.758C165.39 11.758 164.905 11.8837 164.445 12.135C163.995 12.3863 163.596 12.7243 163.249 13.149C162.903 13.565 162.63 14.033 162.43 14.553C162.231 15.073 162.131 15.6017 162.131 16.139C162.131 16.6677 162.227 17.1487 162.417 17.582C162.608 18.0153 162.877 18.362 163.223 18.622C163.579 18.882 163.995 19.012 164.471 19.012C164.965 19.012 165.464 18.8777 165.966 18.609C166.469 18.3403 166.98 17.9287 167.5 17.374L167.253 18.583C166.751 19.0857 166.244 19.4583 165.732 19.701C165.221 19.9437 164.697 20.065 164.159 20.065ZM167.604 16.282H165.719L165.914 15.398H168.774L167.799 20H166.811L167.604 16.282ZM172.642 20.13C172.036 20.13 171.533 20 171.134 19.74C170.736 19.48 170.437 19.1333 170.237 18.7C170.047 18.2667 169.951 17.79 169.951 17.27C169.951 16.698 170.055 16.1607 170.263 15.658C170.471 15.1553 170.757 14.7133 171.121 14.332C171.494 13.942 171.923 13.6387 172.408 13.422C172.894 13.2053 173.409 13.097 173.955 13.097C174.562 13.097 175.065 13.227 175.463 13.487C175.871 13.747 176.174 14.0937 176.373 14.527C176.573 14.9603 176.672 15.4413 176.672 15.97C176.672 16.5333 176.568 17.0663 176.36 17.569C176.152 18.0717 175.862 18.518 175.489 18.908C175.117 19.2893 174.688 19.5883 174.202 19.805C173.717 20.0217 173.197 20.13 172.642 20.13ZM172.837 19.142C173.175 19.142 173.5 19.0683 173.812 18.921C174.133 18.7737 174.415 18.5657 174.657 18.297C174.909 18.0197 175.108 17.699 175.255 17.335C175.403 16.971 175.476 16.5723 175.476 16.139C175.476 15.7403 175.411 15.3893 175.281 15.086C175.151 14.774 174.961 14.5313 174.709 14.358C174.458 14.176 174.146 14.085 173.773 14.085C173.435 14.085 173.11 14.163 172.798 14.319C172.486 14.4663 172.205 14.6787 171.953 14.956C171.702 15.2247 171.503 15.5453 171.355 15.918C171.208 16.282 171.134 16.6807 171.134 17.114C171.134 17.504 171.199 17.855 171.329 18.167C171.459 18.4703 171.65 18.7087 171.901 18.882C172.161 19.0553 172.473 19.142 172.837 19.142ZM180.548 20.13C179.941 20.13 179.439 20 179.04 19.74C178.641 19.48 178.342 19.1333 178.143 18.7C177.952 18.2667 177.857 17.79 177.857 17.27C177.857 16.698 177.961 16.1607 178.169 15.658C178.377 15.1553 178.663 14.7133 179.027 14.332C179.4 13.942 179.829 13.6387 180.314 13.422C180.799 13.2053 181.315 13.097 181.861 13.097C182.468 13.097 182.97 13.227 183.369 13.487C183.776 13.747 184.08 14.0937 184.279 14.527C184.478 14.9603 184.578 15.4413 184.578 15.97C184.578 16.5333 184.474 17.0663 184.266 17.569C184.058 18.0717 183.768 18.518 183.395 18.908C183.022 19.2893 182.593 19.5883 182.108 19.805C181.623 20.0217 181.103 20.13 180.548 20.13ZM180.743 19.142C181.081 19.142 181.406 19.0683 181.718 18.921C182.039 18.7737 182.32 18.5657 182.563 18.297C182.814 18.0197 183.014 17.699 183.161 17.335C183.308 16.971 183.382 16.5723 183.382 16.139C183.382 15.7403 183.317 15.3893 183.187 15.086C183.057 14.774 182.866 14.5313 182.615 14.358C182.364 14.176 182.052 14.085 181.679 14.085C181.341 14.085 181.016 14.163 180.704 14.319C180.392 14.4663 180.11 14.6787 179.859 14.956C179.608 15.2247 179.408 15.5453 179.261 15.918C179.114 16.282 179.04 16.6807 179.04 17.114C179.04 17.504 179.105 17.855 179.235 18.167C179.365 18.4703 179.556 18.7087 179.807 18.882C180.067 19.0553 180.379 19.142 180.743 19.142ZM187.609 22.899C186.881 22.899 186.313 22.7647 185.906 22.496C185.498 22.2273 185.191 21.8633 184.983 21.404L185.763 20.819C185.936 21.2177 186.2 21.5167 186.556 21.716C186.92 21.9153 187.331 22.015 187.791 22.015C188.181 22.015 188.553 21.937 188.909 21.781C189.273 21.6337 189.589 21.404 189.858 21.092C190.126 20.78 190.308 20.39 190.404 19.922L190.651 18.726C190.33 19.142 189.936 19.4713 189.468 19.714C189.008 19.9567 188.549 20.078 188.09 20.078C187.604 20.078 187.184 19.9523 186.829 19.701C186.482 19.441 186.218 19.103 186.036 18.687C185.854 18.2623 185.763 17.803 185.763 17.309C185.763 16.763 185.862 16.2387 186.062 15.736C186.27 15.2333 186.551 14.787 186.907 14.397C187.262 13.9983 187.669 13.682 188.129 13.448C188.597 13.214 189.086 13.097 189.598 13.097C190.135 13.097 190.568 13.2357 190.898 13.513C191.236 13.7903 191.496 14.1413 191.678 14.566L191.964 13.214H192.978L191.548 19.922C191.418 20.5633 191.158 21.105 190.768 21.547C190.378 21.989 189.905 22.3227 189.351 22.548C188.805 22.782 188.224 22.899 187.609 22.899ZM188.649 19.142C188.874 19.142 189.099 19.0987 189.325 19.012C189.559 18.9253 189.775 18.8127 189.975 18.674C190.183 18.5267 190.365 18.362 190.521 18.18C190.685 17.998 190.811 17.8117 190.898 17.621L191.314 15.671C191.27 15.359 191.166 15.086 191.002 14.852C190.837 14.6093 190.633 14.423 190.391 14.293C190.157 14.1543 189.901 14.085 189.624 14.085C189.251 14.085 188.904 14.176 188.584 14.358C188.263 14.54 187.977 14.7827 187.726 15.086C187.483 15.3807 187.292 15.7057 187.154 16.061C187.015 16.4163 186.946 16.7717 186.946 17.127C186.946 17.491 187.015 17.829 187.154 18.141C187.301 18.4443 187.5 18.687 187.752 18.869C188.012 19.051 188.311 19.142 188.649 19.142ZM195.105 20.091C194.75 20.091 194.472 20.0043 194.273 19.831C194.074 19.649 193.974 19.3977 193.974 19.077C193.974 19.0077 193.978 18.9383 193.987 18.869C194.004 18.7997 194.017 18.7303 194.026 18.661L195.755 10.51H196.886L195.248 18.245C195.239 18.2883 195.231 18.3317 195.222 18.375C195.222 18.4097 195.222 18.4487 195.222 18.492C195.222 18.8647 195.417 19.051 195.807 19.051C195.902 19.051 196.015 19.038 196.145 19.012C196.284 18.9773 196.409 18.9383 196.522 18.895L196.483 19.818C196.292 19.896 196.063 19.961 195.794 20.013C195.534 20.065 195.304 20.091 195.105 20.091ZM200.596 20.13C200.032 20.13 199.551 20.0043 199.153 19.753C198.754 19.493 198.451 19.1463 198.243 18.713C198.035 18.2797 197.931 17.7943 197.931 17.257C197.931 16.711 198.03 16.191 198.23 15.697C198.438 15.1943 198.728 14.748 199.101 14.358C199.473 13.968 199.907 13.6603 200.401 13.435C200.903 13.2097 201.449 13.097 202.039 13.097C202.481 13.097 202.871 13.1663 203.209 13.305C203.555 13.4437 203.824 13.6473 204.015 13.916C204.205 14.1847 204.301 14.5227 204.301 14.93C204.301 15.6147 203.997 16.1347 203.391 16.49C202.784 16.8453 201.852 17.023 200.596 17.023C200.362 17.023 200.093 17.0187 199.79 17.01C199.486 16.9927 199.135 16.9667 198.737 16.932L198.893 16.152C199.274 16.1693 199.599 16.1867 199.868 16.204C200.145 16.2213 200.401 16.23 200.635 16.23C201.293 16.23 201.813 16.1737 202.195 16.061C202.576 15.9483 202.849 15.7923 203.014 15.593C203.187 15.3937 203.274 15.1683 203.274 14.917C203.274 14.6917 203.217 14.5097 203.105 14.371C203.001 14.2323 202.849 14.1283 202.65 14.059C202.459 13.9897 202.229 13.955 201.961 13.955C201.527 13.955 201.133 14.046 200.778 14.228C200.431 14.41 200.128 14.657 199.868 14.969C199.616 15.281 199.421 15.6363 199.283 16.035C199.153 16.425 199.088 16.8323 199.088 17.257C199.088 17.6123 199.148 17.946 199.27 18.258C199.391 18.5613 199.577 18.8083 199.829 18.999C200.08 19.181 200.396 19.272 200.778 19.272C201.176 19.272 201.566 19.1723 201.948 18.973C202.329 18.765 202.628 18.4877 202.845 18.141L203.768 18.414C203.56 18.7433 203.287 19.038 202.949 19.298C202.611 19.558 202.238 19.7617 201.831 19.909C201.432 20.0563 201.02 20.13 200.596 20.13Z" fill="#3C3C3C"/>
<g clip-path="url(#clip0_17_914)">
<path d="M38.9895 15.7151C38.9895 14.7728 38.9146 14.0852 38.7526 13.3721H28.2191V17.6252H34.4021C34.2775 18.6821 33.6043 20.2739 32.1084 21.3435L32.0874 21.4859L35.4179 24.1215L35.6487 24.145C37.7678 22.1458 38.9895 19.2042 38.9895 15.7151Z" fill="#4285F4"/>
<path d="M28.2191 26.921C31.2483 26.921 33.7913 25.9022 35.6487 24.145L32.1084 21.3435C31.161 22.0184 29.8895 22.4895 28.2191 22.4895C25.2523 22.4895 22.7343 20.4904 21.8367 17.7271L21.7051 17.7385L18.242 20.4763L18.1967 20.6049C20.0416 24.3487 23.8312 26.921 28.2191 26.921Z" fill="#34A853"/>
<path d="M21.8366 17.7271C21.5998 17.014 21.4627 16.2499 21.4627 15.4605C21.4627 14.6709 21.5998 13.9069 21.8242 13.1938L21.8179 13.042L18.3114 10.2602L18.1967 10.3159C17.4363 11.8695 17 13.6141 17 15.4605C17 17.3069 17.4363 19.0514 18.1967 20.6049L21.8366 17.7271Z" fill="#FBBC05"/>
<path d="M28.2191 8.43136C30.3258 8.43136 31.7469 9.36093 32.5572 10.1378L35.7235 6.97973C33.7789 5.13332 31.2483 4 28.2191 4C23.8312 4 20.0416 6.57223 18.1967 10.316L21.8242 13.1939C22.7343 10.4306 25.2523 8.43136 28.2191 8.43136Z" fill="#EB4335"/>
</g>
<defs>
<clipPath id="clip0_17_914">
<rect width="22" height="23" fill="white" transform="translate(17 4)"/>
</clipPath>
</defs>
</svg>
